<svg xmlns="http://www.w3.org/2000/svg" xmlns:xlink="http://www.w3.org/1999/xlink" width="100" zoomAndPan="magnify" viewBox="0 0 75 74.999997" height="100" preserveAspectRatio="xMidYMid meet" version="1.0">
    <defs>
        <clipPath id="a68e97f491"><path d="M 1 13.292969 L 74 13.292969 L 74 23 L 1 23 Z M 1 13.292969 " clip-rule="nonzero"/></clipPath>
        <clipPath id="ddcb2bad3a"><path d="M 1.148438 52 L 73.859375 52 L 73.859375 62.042969 L 1.148438 62.042969 Z M 1.148438 52 " clip-rule="nonzero"/></clipPath>
    </defs>
    <path fill="#fff" d="M 4.175781 33.117188 L 70.832031 33.117188 C 72.503906 33.117188 73.859375 34.800781 73.859375 36.164062 L 73.859375 39.210938 C 73.859375 40.902344 72.503906 42.265625 70.832031 42.265625 L 4.175781 42.265625 C 2.503906 42.265625 1.148438 40.578125 1.148438 39.210938 L 1.148438 36.164062 C 1.148438 34.480469 2.503906 33.117188 4.175781 33.117188 " fill-opacity="1" fill-rule="nonzero"/>
    <g clip-path="url(#a68e97f491)">
        <path fill="#fff" d="M 4.175781 13.289062 L 70.832031 13.289062 C 72.503906 13.289062 73.859375 14.96875 73.859375 16.335938 L 73.859375 19.390625 C 73.859375 21.074219 72.503906 22.4375 70.832031 22.4375 L 4.175781 22.4375 C 2.503906 22.4375 1.148438 20.753906 1.148438 19.390625 L 1.148438 16.335938 C 1.148438 14.652344 2.503906 13.289062 4.175781 13.289062 " fill-opacity="1" fill-rule="nonzero"/>
    </g>
    <g clip-path="url(#ddcb2bad3a)">
        <path fill="#fff" d="M 4.175781 52.9375 L 70.832031 52.9375 C 72.503906 52.9375 73.859375 54.628906 73.859375 55.992188 L 73.859375 59.042969 C 73.859375 60.726562 72.503906 62.089844 70.832031 62.089844 L 4.175781 62.089844 C 2.503906 62.089844 1.148438 60.40625 1.148438 59.042969 L 1.148438 55.992188 C 1.148438 54.3125 2.503906 52.9375 4.175781 52.9375 " fill-opacity="1" fill-rule="nonzero"/>
    </g>        
</svg>